<?xml version="1.0" encoding="UTF-8" standalone="no"?>
<svg width="512.0" height="512.0" viewBox="0 0 512.0 512.0" xmlns="http://www.w3.org/2000/svg">
    <path d="M512 273.63c-0.0107422 -8.68555 -2.8623 -17.5059 -9.04199 -24.3574l-68.8379 -76.1104l7.62695 -7.04492c6.74902 -6.23633 10.1689 -14.7949 10.1582 -23.2773c0 -7.70898 -2.81641 -15.5215 -8.5 -21.6143l-4.07812 -4.36816 c-5.21191 -5.59766 -12.0664 -8.75 -19.1348 -9.6875c0.529297 -2.35059 0.873047 -4.72949 0.873047 -7.12109c0.0117188 -7.70312 -2.81641 -15.5156 -8.5 -21.6074l-4.06738 -4.36426c-6.27832 -6.70703 -14.8652 -10.1113 -23.3877 -10.1113 c-2.66992 0 -5.31738 0.454102 -7.92969 1.12305c-0.813477 -6.3291 -3.44922 -12.5254 -8.13281 -17.5293l-4.05469 -4.36328c-6.27246 -6.71289 -14.8828 -10.123 -23.4062 -10.1172c-7.7373 -0.00585938 -15.5752 2.80371 -21.7012 8.45312l-9.89551 9.13379 c-1.33301 -4.6709 -3.63086 -9.14648 -7.15137 -12.9268l-4.07812 -4.36914c-6.26562 -6.70801 -14.8525 -10.1182 -23.3643 -10.1006c-7.74805 -0.0166016 -15.5977 2.80566 -21.7129 8.47754l-25.5469 23.6436l-18.8037 -19.6357 c-6.25293 -6.52832 -14.7188 -9.82129 -23.1016 -9.81445c-7.87207 -0.00585938 -15.8604 2.90332 -22.0098 8.74414l-4.3291 4.11914c-4.06543 3.86328 -6.73633 8.61621 -8.2959 13.6309c-5.3291 -3.52441 -11.5186 -5.34082 -17.6807 -5.33496 c-7.88281 -0.00488281 -15.8584 2.9043 -22.0195 8.74512l-4.3291 4.11914c-4.53809 4.30469 -7.42383 9.69238 -8.82031 15.3594c-3.98047 -1.66406 -8.21484 -2.51465 -12.4453 -2.50781c-7.87012 -0.00585938 -15.8574 2.90332 -22.0195 8.74414l-4.3291 4.11914 l0.0107422 -0.00585938c-6.55566 6.21387 -9.87207 14.6377 -9.86133 22.9932c-0.0107422 5.18262 1.3916 10.3564 3.95605 15.0742c-5.11328 1.30859 -10.001 3.7627 -14.0674 7.62109l-4.31641 4.10059c-6.56738 6.20703 -9.88379 14.6367 -9.87305 22.9863 c0 7.84668 2.91992 15.7832 8.78516 21.9033l21.2764 22.1953l-44.8506 38.2637c-7.25977 6.18555 -11.0234 15.0107 -11.0127 23.8076c-0.0107422 7.37695 2.63574 14.8711 7.96484 20.8223l48.0801 53.8457c4.00781 4.47852 9.04102 7.74316 14.4629 9.9541 c5.42871 2.19922 11.2705 3.35645 17.1465 3.3623c5.10254 -0.00585938 10.252 -0.883789 15.0684 -2.9375l26.4082 -11.2637c4.29395 -1.86133 11.1123 -3.07715 17.8965 -3.04883c6.7832 -0.0292969 13.6133 1.18652 17.9072 3.04883l26.3848 11.2578 c7.06348 2.9834 15.1084 4.22363 23.1553 4.24707c8.9082 -0.0292969 17.7275 -1.5127 25.2275 -5.18945c6.25391 -3.11133 11.7744 -5.8584 15.3877 -7.66211l4.52051 3.1709c8.18555 5.67383 18.373 8.14551 28.4316 8.19238 c7.00391 -0.0117188 13.9688 -1.24512 20.2168 -4.25293l38.7363 -18.7627c3.41504 -1.6875 8.58691 -2.75879 13.9385 -2.73535c6.88965 -0.046875 14.0215 1.77441 18.1816 4.42676l39.5557 24.6104c5.53223 3.4502 11.793 5.02637 17.9424 5.02637 c10.332 -0.0175781 20.6709 -4.41016 27.4658 -13.0381l40.5684 -51.9082c5.05469 -6.49805 7.34082 -14.3809 7.35254 -22.1543zM62.0137 139.935c2.99609 0.0136719 5.94043 0.920898 8.43066 2.68262c0 0 46.8867 48.8652 47.0312 49.0098 c1.69336 2.44434 2.56641 5.26562 2.57715 8.16309c-0.0107422 3.86914 -4.46777 10.46 -4.46777 10.46l-4.30469 4.10742c-2.81055 2.64648 -6.36523 3.95605 -10.001 3.96191c-3.88672 -0.00488281 -7.67383 -1.48828 -10.5137 -4.4502l-43.5752 -45.4727 c-2.67188 -2.78711 -3.96875 -6.3252 -3.98047 -9.94922c0.0117188 -3.86426 1.48926 -7.62695 4.48047 -10.4551l4.32227 -4.10156c2.78711 -2.64062 6.35449 -3.94434 10.001 -3.95605zM96.8164 94.5781l58.1074 60.6602c2.66016 2.78711 3.96777 6.33008 3.98047 9.9541 c-0.0117188 3.86816 -1.49023 7.63867 -4.46875 10.4551l-4.32812 4.11816c-2.79883 2.64746 -6.35449 3.9502 -10.001 3.95605c-3.69434 -0.00585938 -7.27148 -1.38477 -10.0479 -4.05469c-0.488281 -0.583008 -58.5742 -61.0479 -58.5742 -61.0479 c-2.6582 -2.78711 -3.96777 -6.3252 -3.96777 -9.94922c0 -3.86426 1.49023 -7.63867 4.45703 -10.4551l0.0117188 -0.00585938l4.3291 -4.11426c2.79785 -2.64062 6.35352 -3.9502 10.001 -3.95605c3.88574 0.0126953 7.66797 1.48926 10.501 4.43945zM144.423 68.8701 l38.875 40.5684c2.64844 2.7793 3.96777 6.32227 3.98047 9.95312c-0.0117188 3.86328 -1.50098 7.63379 -4.46875 10.4492l-4.34082 4.11914c-2.79785 2.64746 -6.35352 3.9502 -10.001 3.95605c-3.54395 0 -6.96387 -1.29688 -9.69238 -3.75781l-40.4521 -42.2217 c-2.10547 -2.61133 -3.20508 -5.74805 -3.20508 -8.98242c0 -3.86426 1.49023 -7.63281 4.46777 -10.4551l4.34082 -4.11426c2.79785 -2.64648 6.35449 -3.95605 10.001 -3.96191c3.8877 0.0107422 7.66797 1.49023 10.4951 4.44727zM221.285 73.3262 c2.65918 2.78125 3.96777 6.32422 3.98145 9.9541c-0.0117188 3.8623 -1.48926 7.63281 -4.45703 10.4482l-4.34082 4.11426c-2.79785 2.65332 -6.36523 3.95605 -10.001 3.96191c-3.88574 -0.00585938 -7.67383 -1.48926 -10.5127 -4.44434l-24.5352 -25.6172 c-2.66016 -2.77539 -3.96875 -6.31836 -3.97949 -9.94922c0.0107422 -3.86426 1.50098 -7.63867 4.46777 -10.4551l4.3291 -4.11426c2.79785 -2.64648 6.35352 -3.95605 10.001 -3.96191c3.88574 0.0117188 7.67285 1.49023 10.501 4.44531zM434.523 142.817 c-0.0126953 3.92676 -1.54883 7.75 -4.59961 10.5791l-51.5293 47.6426c-8.94238 8.28516 -25.0801 21.4512 -34.9883 28.5488l-44.5195 31.917c-3.64746 2.68066 -9.71582 4.46191 -15.7373 4.42676c-5.125 0.0234375 -10.0811 -1.24512 -13.3633 -3.25195 l-16.0918 -9.66406c-5.39355 -3.23438 -11.4443 -4.73535 -17.3848 -4.73535c-10.5186 0.0224609 -21.043 4.63574 -27.792 13.6074l-3.55371 4.77637l0.0107422 -0.0117188c-4.16602 5.5791 -6.21289 12.1523 -6.20117 18.6104 c-0.0126953 9.75684 4.64746 19.4268 13.2939 25.5059l26.9072 18.915c-2.19238 1.09961 -4.55469 2.27539 -7.04492 3.51465c-3.9209 2.00098 -10.6807 3.39746 -17.4297 3.35645c-6.10254 0.0234375 -12.2402 -1.07715 -16.3066 -2.85059l-26.3848 -11.2578 c-7.44141 -3.13574 -16.0693 -4.4209 -24.7617 -4.4502c-8.68164 0.0283203 -17.3213 1.31348 -24.7617 4.4502l-26.3965 11.2627c-2.29297 0.989258 -5.16016 1.54199 -8.21484 1.54199c-3.50781 0.00488281 -7.25977 -0.733398 -10.5645 -2.07715 c-3.30566 -1.34473 -6.12695 -3.28223 -8.03516 -5.42285l-48.0791 -53.8447c-2.41992 -2.70996 -3.55469 -5.97461 -3.56641 -9.30859c0.0126953 -3.97852 1.64746 -7.85352 4.92188 -10.6572l45.5664 -38.8643l10.2861 10.7334 c6.25293 6.52832 14.7061 9.82129 23.1016 9.81543c7.87207 0.00585938 15.8477 -2.90918 22.0098 -8.75586l4.31641 -4.10156v-0.00585938c6.2832 -5.96875 9.51172 -13.9795 9.76172 -21.9971c0.914062 0.0820312 1.82129 0.268555 2.74023 0.268555 c7.87207 0.00585938 15.8477 -2.90918 22.0088 -8.75l4.3291 -4.11914c6.55664 -6.21191 9.86133 -14.6367 9.86133 -22.9863c0 -3.55469 -0.680664 -7.10352 -1.88477 -10.5127c5.83984 -1.09375 11.4551 -3.81641 16.0566 -8.17969l4.3291 -4.10742 s9.87207 -14.6494 9.86133 -22.998c0 -0.144531 -0.0341797 -0.296875 -0.0341797 -0.441406c0.598633 0.0341797 1.21484 0.174805 1.82617 0.174805c7.87109 0.0107422 15.8477 -2.90332 21.9971 -8.73926l4.34082 -4.11914 c6.55566 -6.21875 9.87207 -14.6367 9.86035 -22.9863c0 -4.92188 -1.28516 -9.82617 -3.58984 -14.3467l26.4775 -24.5166c2.76855 -2.56543 6.27148 -3.82227 9.84961 -3.83301c3.93359 0.0117188 7.77344 1.53613 10.6123 4.57227l4.06641 4.36914 c2.57715 2.76562 3.8291 6.23242 3.84082 9.77539c-0.0117188 3.6709 -1.40723 7.21973 -4.10156 9.98926l-30.4102 28.0654l-0.226562 0.214844l-0.0117188 0.0117188l11.8154 12.7119l0.0107422 -0.0107422h0.0117188l60.7158 -56.0566 c2.76855 -2.55371 6.27051 -3.81641 9.86133 -3.82812c3.9541 0.0117188 7.81738 1.54688 10.6455 4.58398l4.06738 4.36426c2.57715 2.76367 3.83984 6.24805 3.83984 9.80859c0 3.83984 -1.50195 7.58008 -4.43457 10.3906l-60.8379 56.2598l11.8389 12.6895 l68.5537 -63.3809c2.75781 -2.55371 6.27148 -3.81641 9.84961 -3.82715c3.94434 0.0117188 7.7959 1.54199 10.6348 4.57812l4.05566 4.36426c2.57715 2.77051 3.83984 6.24902 3.8623 9.82129c-0.0224609 3.9209 -1.55762 7.76074 -4.6123 10.5889l-73.3584 67.959 l11.8506 12.6895l68.5352 -63.3818c2.78027 -2.56934 6.2832 -3.82617 9.86133 -3.83301c3.94434 0.00683594 7.7959 1.54199 10.6348 4.5791l4.06738 4.36426c2.58301 2.76953 3.85742 6.25391 3.86328 9.8125zM490.038 260.854 c2.8623 3.12402 4.5791 7.90723 4.57227 12.7686c0 4.34668 -1.35547 8.54102 -3.69434 11.5137l-40.5684 51.9082c-3.03027 3.9502 -8.38281 6.37012 -13.7236 6.35938c-3.16016 0 -6.19141 -0.81543 -8.71582 -2.3916l-39.5684 -24.6143 c-8.02344 -4.92871 -17.7627 -7.02246 -27.3965 -7.06934c-7.49805 0.0175781 -14.9512 1.31445 -21.5557 4.48633l-38.7344 18.7627c-3.15918 1.55957 -7.77246 2.53125 -12.6016 2.50781c-6.95215 0.0517578 -14.2705 -2.03711 -18.3848 -5.01465l-47.5791 -33.4307 c-3.89844 -2.75195 -5.91211 -6.98633 -5.93457 -11.3506c0.0126953 -2.88574 0.890625 -5.7373 2.77539 -8.2793l0.0126953 -0.0117188l3.54297 -4.77051c3.0127 -4.10156 8.41699 -6.62109 13.8164 -6.60352c3.02148 0.00585938 5.92969 0.762695 8.39648 2.24609 l16.0801 9.66406c6.75977 4.02441 14.5908 5.71875 22.3633 5.74219c9.13477 -0.0341797 18.373 -2.3457 25.9189 -7.69141l44.5078 -31.917c10.7979 -7.75586 26.8955 -20.8984 36.6572 -29.9102l31.167 -28.8096z" transform="scale(1, -1) translate(0, -448)" fill="white" />
</svg>