<?xml version="1.0" encoding="UTF-8" standalone="no"?>
<svg width="512.0" height="512.0" viewBox="0 0 512.0 512.0" xmlns="http://www.w3.org/2000/svg">
    <path d="M344.423 332.834c9.78027 -9.58594 15.166 -22.4033 15.166 -36.0947c0 -17.9131 -9.62012 -34.5088 -24.873 -43.5303v-95.4082c0 -20.6738 -16.8213 -37.4912 -37.4951 -37.4912h-7.04492v-22.8926c0 -8.00781 -6.5166 -14.5283 -14.5283 -14.5283h-12.1445 c-8.01172 0 -14.5283 6.52051 -14.5283 14.5283v22.8926h-138.364v-22.8926c0 -8.00781 -6.5166 -14.5283 -14.5283 -14.5283h-12.1445c-8.00781 0 -14.5244 6.52051 -14.5244 14.5283v22.8926h-7.04883c-20.6738 0 -37.4912 16.8174 -37.4912 37.4912v95.4082 c-15.2529 9.02148 -24.873 25.6133 -24.873 43.5303c0 7.61719 1.65137 14.9395 4.91602 21.7656c1.78809 3.74609 6.27344 5.33105 10.0195 3.54199c3.74512 -1.78809 5.33105 -6.27734 3.54199 -10.0234c-2.29004 -4.7832 -3.44824 -9.92578 -3.44824 -15.2842 c0 -13.7451 8.05859 -26.3828 20.5322 -32.1953c2.64941 -1.23633 4.34082 -3.89062 4.34082 -6.81055v-99.9326c0 -12.3877 10.0781 -22.4619 22.4619 -22.4619h234.856c12.3877 0 22.4619 10.0742 22.4619 22.4619v99.9326c0 2.91992 1.69141 5.57812 4.34082 6.81055 c12.4736 5.8125 20.5361 18.4502 20.5361 32.1953c0 9.62109 -3.78418 18.627 -10.6572 25.3623c-6.86914 6.73242 -15.9453 10.3213 -25.585 10.1406c-19.1787 -0.382812 -34.7793 -16.6924 -34.7793 -36.3516v-92.1055c0 -12.2979 -10.0039 -22.3018 -22.3018 -22.3018 h-142.884c-12.3018 0 -22.3057 10.0039 -22.3057 22.3018v92.1055c0 17.8037 -12.7939 32.8564 -29.4482 35.8271c-0.121094 0.0195312 -0.238281 0.0400391 -0.356445 0.0634766c-1.62402 0.269531 -3.2832 0.425781 -4.96973 0.460938 c-5.34277 0.0947266 -10.5088 -0.942383 -15.3271 -3.11914c-3.78125 -1.70996 -8.23535 -0.0273438 -9.94141 3.75781c-1.70605 3.78418 -0.0273438 8.23438 3.75781 9.94141c6.45312 2.91504 13.3301 4.42188 20.4258 4.45801v48.6338 c0 15.5381 6.93164 30.7979 18.54 40.8174c9.77344 8.43848 21.7695 12.1064 33.7891 10.333c53.4404 -7.87891 101.107 -7.87891 154.552 0c12.0156 1.76953 24.0156 -1.89844 33.793 -10.3369c11.6123 -10.0195 18.5439 -25.2793 18.5439 -40.8135v-48.6338 c13.1777 -0.0595703 25.5732 -5.18652 35.0176 -14.4463zM258.509 203.785v31.6357h-157.433v-31.6357c0 -4.00781 3.26465 -7.27246 7.27637 -7.27246h142.884c4.00781 0 7.27246 3.26465 7.27246 7.27246zM258.509 295.891c0 22.9707 15.1816 42.7041 35.8672 49.1582 v50.8652c0 11.0605 -5.11133 22.3408 -13.335 29.4404c-4.54004 3.91797 -12 8.28516 -21.7764 6.84082c-54.9629 -8.09766 -103.98 -8.09766 -158.939 0c-9.77734 1.44824 -17.2373 -2.92285 -21.7734 -6.83691c-8.22656 -7.09961 -13.335 -18.3838 -13.335 -29.4443 v-50.8652c20.6816 -6.45801 35.8594 -26.1875 35.8594 -49.1582v-45.4404h157.433v45.4404zM95.5811 97.918v22.3916h-11.1387v-22.3916h11.1387zM275.146 97.918v22.3916h-11.1426v-22.3916h11.1426zM275.146 97.918zM140.07 369.17 c4.14844 0 7.51465 -3.36133 7.51465 -7.51465c0 -4.14844 -3.36621 -7.51465 -7.51465 -7.51465h-2.62988v-2.62988c0 -4.14844 -3.36621 -7.51465 -7.51465 -7.51465s-7.51465 3.36621 -7.51465 7.51465v2.62988h-2.62988c-4.14941 0 -7.51465 3.36621 -7.51465 7.51465 c0 4.15332 3.36523 7.51465 7.51465 7.51465h2.62988v2.63086c0 4.15234 3.36621 7.51465 7.51465 7.51465s7.51465 -3.3623 7.51465 -7.51465v-2.63086h2.62988zM140.07 369.17zM239.805 369.17c4.15234 0 7.51465 -3.36133 7.51465 -7.51465 c0 -4.14844 -3.3623 -7.51465 -7.51465 -7.51465h-2.62695v-2.62988c0 -4.14844 -3.36523 -7.51465 -7.51465 -7.51465c-4.15234 0 -7.51465 3.36621 -7.51465 7.51465v2.62988h-2.62988c-4.15234 0 -7.51465 3.36621 -7.51465 7.51465 c0 4.15332 3.3623 7.51465 7.51465 7.51465h2.62988v2.63086c0 4.15234 3.3623 7.51465 7.51465 7.51465c4.14941 0 7.51465 -3.3623 7.51465 -7.51465v-2.63086h2.62695zM239.805 369.17zM497.025 283.733c8.81055 0 15.9766 -7.16602 15.9766 -15.9756v-9.03027 c0 -8.80957 -7.16602 -15.9756 -15.9766 -15.9756h-0.222656v-117.586c0 -6.11328 -4.49316 -11.1973 -10.3525 -12.1172v-17.6787c0 -6.88086 -5.60059 -12.4814 -12.4814 -12.4814h-11.1074c-6.88086 0 -12.4814 5.60059 -12.4814 12.4814v17.5303h-29.0566v-17.5303 c0 -6.88086 -5.60156 -12.4814 -12.4814 -12.4814h-11.1084c-6.87988 0 -12.4805 5.60059 -12.4805 12.4814v18.4268c-4.48926 1.82715 -7.66016 6.23438 -7.66016 11.3691v73.1553c0 4.15234 3.3623 7.51465 7.51465 7.51465c4.14941 0 7.51465 -3.3623 7.51465 -7.51465 v-5.46387h89.1514v49.8945h-89.1514v-14.3721c0 -4.15332 -3.36523 -7.51465 -7.51465 -7.51465c-4.15234 0 -7.51465 3.36133 -7.51465 7.51465v14.3721h-0.222656c-8.81055 0 -15.9766 7.16602 -15.9766 15.9756v9.03027c0 8.80957 7.16602 15.9756 15.9766 15.9756 h55.9766v33.875h-26.5439c-4.44238 0 -8.61914 2.17285 -11.1709 5.8125c-2.54785 3.63574 -3.16602 8.30469 -1.64746 12.4814l16.5127 45.4951c1.95312 5.37793 7.10352 8.98633 12.8223 8.98633h35.084c5.71777 0 10.8691 -3.6084 12.8213 -8.98242l16.5127 -45.499 c1.51953 -4.17676 0.900391 -8.8457 -1.64746 -12.4814c-2.55176 -3.63965 -6.72754 -5.8125 -11.1699 -5.8125h-26.5439v-33.875h48.6494zM424.294 375.354l-15.5068 -42.7168h64.1484l-15.5068 42.7168h-33.1348zM481.773 177.828h-89.1514v-49.8984h89.1514v49.8984z M406.294 97.9219v14.9785h-6.01172v-14.9785h6.01172zM471.421 97.9219v14.9785h-6.01172v-14.9785h6.01172zM497.973 258.728v9.03027c0 0.524414 -0.426758 0.946289 -0.947266 0.946289h-119.655c-0.520508 0 -0.947266 -0.421875 -0.947266 -0.946289v-9.03027 c0 -0.520508 0.426758 -0.946289 0.947266 -0.946289h119.655c0.520508 0 0.947266 0.425781 0.947266 0.946289zM497.973 258.728zM442.532 222.614h-10.6689c-4.14941 0 -7.51465 3.3623 -7.51465 7.51465c0 4.15332 3.36523 7.51465 7.51465 7.51465h10.6689 c4.14844 0 7.51465 -3.36133 7.51465 -7.51465c0 -4.15234 -3.36621 -7.51465 -7.51465 -7.51465zM442.532 222.614zM431.863 157.487c-4.14941 0 -7.51465 3.3623 -7.51465 7.51465s3.36523 7.51465 7.51465 7.51465h10.6689c4.14844 0 7.51465 -3.3623 7.51465 -7.51465 s-3.36621 -7.51465 -7.51465 -7.51465h-10.6689zM431.863 157.487z" transform="scale(1, -1) translate(0, -448)" fill="white" />
</svg>