<?xml version="1.0" encoding="UTF-8" standalone="no"?>
<svg width="512.0" height="512.0" viewBox="0 0 512.0 512.0" xmlns="http://www.w3.org/2000/svg">
    <path d="M504 144c4.41797 0 8 -3.58203 8 -8v-192c0 -4.41797 -3.58203 -8 -8 -8h-496c-4.41797 0 -8 3.58203 -8 8v192c0 4.41797 3.58203 8 8 8h62.2402c-3.99512 4.37305 -6.21875 10.0771 -6.24023 16v48c0 4.41797 3.58203 8 8 8h120c4.41797 0 8 -3.58203 8 -8v-48 c-0.0214844 -5.92285 -2.24512 -11.627 -6.24023 -16h134.24v40c0 26.5098 21.4902 48 48 48s48 -21.4902 48 -48c0 -4.41797 -3.58203 -8 -8 -8s-8 3.58203 -8 8c0 17.6729 -14.3271 32 -32 32s-32 -14.3271 -32 -32v-8h8c4.41797 0 8 -3.58203 8 -8s-3.58203 -8 -8 -8h-8 v-16h160zM80 200v-40c0 -4.41797 3.58203 -8 8 -8h88c4.41797 0 8 3.58203 8 8v40h-104zM128 -48v96h-112v-96h112zM128 64v64h-24c0 -4.41797 -3.58203 -8 -8 -8h-48c-4.41797 0 -8 3.58203 -8 8h-24v-64h112zM368 -48v176h-224v-176h224zM496 -48v96h-112v-96h112zM496 64 v64h-24c0 -4.41797 -3.58203 -8 -8 -8h-48c-4.41797 0 -8 3.58203 -8 8h-24v-64h112zM160 8c-4.41797 0 -8 3.58203 -8 8v80c0 4.41797 3.58203 8 8 8h192c4.41797 0 8 -3.58203 8 -8v-80c0 -4.41797 -3.58203 -8 -8 -8h-192zM168 88v-64h176v64h-176zM304 -16 c4.41797 0 8 -3.58203 8 -8s-3.58203 -8 -8 -8h-96c-4.41797 0 -8 3.58203 -8 8s3.58203 8 8 8h96zM88 328c-4.41797 0 -8 3.58203 -8 8v104c0 4.41797 3.58203 8 8 8h336c4.41797 0 8 -3.58203 8 -8v-104c0 -4.41797 -3.58203 -8 -8 -8h-336zM264 432v-88h152v88h-152z M96 432v-88h152v88h-152zM200 392c4.41797 0 8 -3.58203 8 -8s-3.58203 -8 -8 -8h-64c-4.41797 0 -8 3.58203 -8 8s3.58203 8 8 8h64zM376 392c4.41797 0 8 -3.58203 8 -8s-3.58203 -8 -8 -8h-64c-4.41797 0 -8 3.58203 -8 8s3.58203 8 8 8h64zM91.2002 250.4 c4 3.04004 4.7998 3.91992 4.7998 5.59961s-0.799805 2.56836 -4.7998 5.59961c-6.63086 3.81836 -10.8545 10.7568 -11.2002 18.4004c0.345703 7.64355 4.56934 14.582 11.2002 18.4004c4 3.04004 4.7998 3.92773 4.7998 5.59961c0 4.41797 3.58203 8 8 8s8 -3.58203 8 -8 c-0.345703 -7.64355 -4.56934 -14.582 -11.2002 -18.4004c-4 -3.04004 -4.7998 -3.91992 -4.7998 -5.59961s0.759766 -2.56836 4.7998 -5.59961c6.63086 -3.81836 10.8545 -10.7568 11.2002 -18.4004c-0.345703 -7.64355 -4.56934 -14.582 -11.2002 -18.4004 c-4 -3.02344 -4.7998 -3.91113 -4.7998 -5.59961c0 -4.41797 -3.58203 -8 -8 -8s-8 3.58203 -8 8c0.345703 7.64355 4.56934 14.582 11.2002 18.4004zM140.8 285.6c-4 -3.01562 -4.7998 -3.91992 -4.7998 -5.59961s0.799805 -2.56836 4.7998 -5.59961 c6.63086 -3.81836 10.8545 -10.7568 11.2002 -18.4004c-0.345703 -7.64355 -4.56934 -14.582 -11.2002 -18.4004c-4 -3.02344 -4.7998 -3.91113 -4.7998 -5.59961c0 -4.41797 -3.58203 -8 -8 -8s-8 3.58203 -8 8c0.345703 7.64355 4.56934 14.582 11.2002 18.4004 c4 3.02344 4.7998 3.91992 4.7998 5.59961s-0.799805 2.56836 -4.7998 5.59961c-6.63086 3.81836 -10.8545 10.7568 -11.2002 18.4004c0.345703 7.64355 4.56934 14.582 11.2002 18.4004c4 3.04004 4.7998 3.92773 4.7998 5.59961c0 4.41797 3.58203 8 8 8s8 -3.58203 8 -8 c-0.345703 -7.64355 -4.56934 -14.582 -11.2002 -18.4004zM180.8 285.6c-4 -3.01562 -4.7998 -3.91992 -4.7998 -5.59961s0.799805 -2.56836 4.7998 -5.59961c6.63086 -3.81836 10.8545 -10.7568 11.2002 -18.4004c-0.345703 -7.64355 -4.56934 -14.582 -11.2002 -18.4004 c-4 -3.02344 -4.7998 -3.91113 -4.7998 -5.59961c0 -4.41797 -3.58203 -8 -8 -8s-8 3.58203 -8 8c0.345703 7.64355 4.56934 14.582 11.2002 18.4004c4 3.02344 4.7998 3.91992 4.7998 5.59961s-0.799805 2.56836 -4.7998 5.59961 c-6.63086 3.81836 -10.8545 10.7568 -11.2002 18.4004c0.345703 7.64355 4.56934 14.582 11.2002 18.4004c4 3.04004 4.7998 3.92773 4.7998 5.59961c0 4.41797 3.58203 8 8 8s8 -3.58203 8 -8c-0.345703 -7.64355 -4.56934 -14.582 -11.2002 -18.4004z" transform="scale(1, -1) translate(0, -448)" fill="white" />
</svg>