<?xml version="1.0" encoding="UTF-8" standalone="no"?>
<svg width="512.0" height="512.0" viewBox="0 0 512.0 512.0" xmlns="http://www.w3.org/2000/svg">
    <path d="M85.333 328.533c14.1143 0 25.5996 -11.4863 25.5996 -25.6006v-68.2666c0 -14.1143 -11.4854 -25.5996 -25.5996 -25.5996s-25.5996 11.4854 -25.5996 25.5996v68.2666c0 14.1143 11.4854 25.6006 25.5996 25.6006zM93.8672 234.667v68.2666 c0 4.70996 -3.82324 8.5332 -8.5332 8.5332s-8.5332 -3.82324 -8.5332 -8.5332v-68.2666c0 -4.70996 3.82324 -8.5332 8.5332 -8.5332s8.5332 3.82324 8.5332 8.5332zM426.667 328.533c14.1143 0 25.5996 -11.4863 25.5996 -25.6006v-68.2666 c0 -14.1143 -11.4854 -25.5996 -25.5996 -25.5996s-25.5996 11.4854 -25.5996 25.5996v68.2666c0 14.1143 11.4854 25.6006 25.5996 25.6006zM435.2 234.667v68.2666c0 4.70996 -3.82324 8.5332 -8.5332 8.5332s-8.5332 -3.82324 -8.5332 -8.5332v-68.2666 c0 -4.70996 3.82324 -8.5332 8.5332 -8.5332s8.5332 3.82324 8.5332 8.5332zM427.162 320.546c1.36523 -4.50488 -1.1875 -9.27637 -5.70117 -10.6328c-0.828125 -0.24707 -1.65625 -0.367188 -2.47461 -0.367188c-3.66016 0 -7.04785 2.37207 -8.16602 6.06738 c-20.5225 67.8916 -84.1816 115.319 -154.82 115.319s-134.298 -47.4277 -154.821 -115.319c-1.36426 -4.51465 -6.11816 -7.07422 -10.6406 -5.7002c-4.51367 1.35645 -7.06543 6.12695 -5.7002 10.6328c22.6816 75.042 93.0654 127.454 171.162 127.454 s148.48 -52.4121 171.162 -127.454zM426.667 226.133c4.70996 0 8.5332 -3.81348 8.5332 -8.5332c0 -32.9297 -26.7939 -59.7324 -59.7334 -59.7324c-4.70996 0 -8.5332 3.81348 -8.5332 8.5332c0 4.71875 3.82324 8.53223 8.5332 8.53223 c23.5273 0 42.667 19.1416 42.667 42.667c0 4.71973 3.82324 8.5332 8.5332 8.5332zM358.4 200.533c14.1133 0 25.5996 -11.4863 25.5996 -25.6006v-17.0664c0 -14.1143 -11.4863 -25.6006 -25.5996 -25.6006h-51.2002c-14.1143 0 -25.6006 11.4863 -25.6006 25.6006 v17.0664c0 14.1143 11.4863 25.6006 25.6006 25.6006h51.2002zM366.933 157.867v17.0664c0 4.70996 -3.82227 8.5332 -8.53223 8.5332h-51.2002c-4.70996 0 -8.5332 -3.82324 -8.5332 -8.5332v-17.0664c0 -4.70996 3.82324 -8.5332 8.5332 -8.5332h51.2002 c4.70996 0 8.53223 3.82324 8.53223 8.5332zM256 405.333c75.29 0 136.533 -61.252 136.534 -136.533c0 -29.7041 -9.50586 -58.0352 -27.4863 -81.9365c-1.61328 -2.14258 -4.13867 -3.39648 -6.82715 -3.39648h-51.0205c-4.70996 0 -8.5332 -3.82324 -8.5332 -8.5332 v-17.0664c0 -2.54297 1.18555 -4.42871 2.17578 -5.55566c1.90332 -2.17578 2.57812 -5.15332 1.80078 -7.93555c-0.776367 -2.77441 -2.90918 -4.9668 -5.65723 -5.83691c-13.2705 -4.16406 -27.0605 -6.27246 -40.9863 -6.27246 c-75.29 0 -136.533 61.252 -136.533 136.533s61.2432 136.533 136.533 136.533zM353.877 200.533c14.1396 20.1729 21.5898 43.6904 21.5898 68.2666c0 65.877 -53.5898 119.467 -119.467 119.467s-119.467 -53.5889 -119.467 -119.467s53.5898 -119.467 119.467 -119.467 c8.8584 0 17.6475 0.972656 26.249 2.91016c-0.426758 1.83398 -0.649414 3.71973 -0.649414 5.62305v17.0664c0 14.1143 11.4863 25.6006 25.6006 25.6006h46.6768zM344.644 115.2c54.6396 0 99.0898 -44.4502 99.0889 -99.0811v-71.5859 c0 -4.71875 -3.82324 -8.5332 -8.5332 -8.5332h-358.4c-4.70996 0 -8.5332 3.81445 -8.5332 8.5332v71.5859c0 54.6309 44.4512 99.0811 99.0811 99.0811h177.297zM426.667 -46.9326v63.0527c0 45.2266 -36.7959 82.0137 -82.0137 82.0137h-177.307 c-45.2178 0 -82.0137 -36.7959 -82.0137 -82.0137v-63.0527h341.334zM145.067 12.7998c4.70996 0 8.53223 -3.81348 8.53223 -8.5332v-59.7324c0 -4.71875 -3.82227 -8.5332 -8.53223 -8.5332s-8.5332 3.81445 -8.5332 8.5332v59.7324 c0 4.71973 3.82324 8.5332 8.5332 8.5332zM375.467 12.7998c4.70996 0 8.5332 -3.81348 8.5332 -8.5332v-59.7324c0 -4.71875 -3.82324 -8.5332 -8.5332 -8.5332s-8.5332 3.81445 -8.5332 8.5332v59.7324c0 4.71973 3.82324 8.5332 8.5332 8.5332z" transform="scale(1, -1) translate(0, -448)" fill="white" />
</svg>