<?xml version="1.0" encoding="UTF-8" standalone="no"?>
<svg width="512.0" height="512.0" viewBox="0 0 512.0 512.0" xmlns="http://www.w3.org/2000/svg">
    <path d="M400 64c-4.41602 0 -8 -3.58398 -8 -8s3.58398 -8 8 -8h16c13.248 0 24 -10.752 24 -24s-10.752 -24 -24 -24v-8c0 -4.41602 -3.58398 -8 -8 -8s-8 3.58398 -8 8v8c-13.248 0 -24 10.752 -24 24c0 4.41602 3.58398 8 8 8s8 -3.58398 8 -8s3.58398 -8 8 -8h16 c4.41602 0 8 3.58398 8 8s-3.58398 8 -8 8h-16c-13.248 0 -24 10.752 -24 24s10.752 24 24 24v8c0 4.41602 3.58398 8 8 8s8 -3.58398 8 -8v-8c13.248 0 24 -10.752 24 -24c0 -4.41602 -3.58398 -8 -8 -8s-8 3.58398 -8 8s-3.58398 8 -8 8h-16zM104 304 c-4.41602 0 -8 3.58398 -8 8v80c0 4.41602 3.58398 8 8 8h304c4.41602 0 8 -3.58398 8 -8v-80c0 -4.41602 -3.58398 -8 -8 -8h-304zM112 384v-64h288v64h-288zM168 208c13.248 0 24 -10.752 24 -24v-16c0 -13.248 -10.752 -24 -24 -24h-48c-13.248 0 -24 10.752 -24 24v16 c0 13.248 10.752 24 24 24h48zM176 168v16c0 4.41602 -3.58398 8 -8 8h-48c-4.41602 0 -8 -3.58398 -8 -8v-16c0 -4.41602 3.58398 -8 8 -8h48c4.41602 0 8 3.58398 8 8zM168 128c13.248 0 24 -10.752 24 -24v-16c0 -13.248 -10.752 -24 -24 -24h-48 c-13.248 0 -24 10.752 -24 24v16c0 13.248 10.752 24 24 24h48zM176 88v16c0 4.41602 -3.58398 8 -8 8h-48c-4.41602 0 -8 -3.58398 -8 -8v-16c0 -4.41602 3.58398 -8 8 -8h48c4.41602 0 8 3.58398 8 8zM168 48c13.248 0 24 -10.752 24 -24v-16 c0 -13.248 -10.752 -24 -24 -24h-48c-13.248 0 -24 10.752 -24 24v16c0 13.248 10.752 24 24 24h48zM176 8v16c0 4.41602 -3.58398 8 -8 8h-48c-4.41602 0 -8 -3.58398 -8 -8v-16c0 -4.41602 3.58398 -8 8 -8h48c4.41602 0 8 3.58398 8 8zM280 208 c13.248 0 24 -10.752 24 -24v-16c0 -13.248 -10.752 -24 -24 -24h-48c-13.248 0 -24 10.752 -24 24v16c0 13.248 10.752 24 24 24h48zM288 168v16c0 4.41602 -3.58398 8 -8 8h-48c-4.41602 0 -8 -3.58398 -8 -8v-16c0 -4.41602 3.58398 -8 8 -8h48c4.41602 0 8 3.58398 8 8z M280 128c13.248 0 24 -10.752 24 -24v-16c0 -13.248 -10.752 -24 -24 -24h-48c-13.248 0 -24 10.752 -24 24v16c0 13.248 10.752 24 24 24h48zM288 88v16c0 4.41602 -3.58398 8 -8 8h-48c-4.41602 0 -8 -3.58398 -8 -8v-16c0 -4.41602 3.58398 -8 8 -8h48 c4.41602 0 8 3.58398 8 8zM280 48c13.248 0 24 -10.752 24 -24v-16c0 -13.248 -10.752 -24 -24 -24h-48c-13.248 0 -24 10.752 -24 24v16c0 13.248 10.752 24 24 24h48zM288 8v16c0 4.41602 -3.58398 8 -8 8h-48c-4.41602 0 -8 -3.58398 -8 -8v-16 c0 -4.41602 3.58398 -8 8 -8h48c4.41602 0 8 3.58398 8 8zM392 208c13.248 0 24 -10.752 24 -24v-16c0 -13.248 -10.752 -24 -24 -24h-48c-13.248 0 -24 10.752 -24 24v16c0 13.248 10.752 24 24 24h48zM400 168v16c0 4.41602 -3.58398 8 -8 8h-48 c-4.41602 0 -8 -3.58398 -8 -8v-16c0 -4.41602 3.58398 -8 8 -8h48c4.41602 0 8 3.58398 8 8zM392 288c13.248 0 24 -10.752 24 -24v-16c0 -13.248 -10.752 -24 -24 -24h-48c-13.248 0 -24 10.752 -24 24v16c0 13.248 10.752 24 24 24h48zM400 248v16 c0 4.41602 -3.58398 8 -8 8h-48c-4.41602 0 -8 -3.58398 -8 -8v-16c0 -4.41602 3.58398 -8 8 -8h48c4.41602 0 8 3.58398 8 8zM280 288c13.248 0 24 -10.752 24 -24v-16c0 -13.248 -10.752 -24 -24 -24h-48c-13.248 0 -24 10.752 -24 24v16c0 13.248 10.752 24 24 24h48z M288 248v16c0 4.41602 -3.58398 8 -8 8h-48c-4.41602 0 -8 -3.58398 -8 -8v-16c0 -4.41602 3.58398 -8 8 -8h48c4.41602 0 8 3.58398 8 8zM168 288c13.248 0 24 -10.752 24 -24v-16c0 -13.248 -10.752 -24 -24 -24h-48c-13.248 0 -24 10.752 -24 24v16 c0 13.248 10.752 24 24 24h48zM176 248v16c0 4.41602 -3.58398 8 -8 8h-48c-4.41602 0 -8 -3.58398 -8 -8v-16c0 -4.41602 3.58398 -8 8 -8h48c4.41602 0 8 3.58398 8 8zM448 118.288c26.4902 -13.5098 47.9893 -48.6074 47.9893 -78.3438 c0 -48.5459 -39.3984 -87.9443 -87.9434 -87.9443h-0.0458984h-304c-22.0537 0.0263672 -39.9736 17.9463 -40 40v400c0.0263672 22.0537 17.9463 39.9736 40 40h304c22.0537 -0.0263672 39.9736 -17.9463 40 -40v-273.712zM104 -32h253.6 c-20.7119 14.4863 -37.5215 46.7578 -37.5215 72.0322c0 48.5234 39.3818 87.9043 87.9043 87.9043c6.75781 0 17.5176 -1.49805 24.0176 -3.34473v267.408c0 13.248 -10.752 24 -24 24h-304c-13.248 0 -24 -10.752 -24 -24v-400c0 -13.248 10.752 -24 24 -24zM408 -32 c39.7002 0.0439453 71.9561 32.2998 72 72c0 39.7441 -32.2559 72 -72 72s-72 -32.2559 -72 -72s32.2559 -72 72 -72z" transform="scale(1, -1) translate(0, -448)" fill="rgb(207, 117, 0)" />
</svg>