<?xml version="1.0" encoding="UTF-8" standalone="no"?>
<svg width="512.0" height="512.0" viewBox="0 0 512.0 512.0" xmlns="http://www.w3.org/2000/svg">
    <path d="M507.285 236.465c2.84766 -1.14062 4.71484 -3.89844 4.71484 -6.96484v-75c0 -3.06641 -1.86719 -5.82422 -4.71484 -6.96484l-42.6602 -17.0625c-4.34766 -14.707 -10.2617 -28.9453 -17.625 -42.4258l18.125 -42.293 c1.20703 -2.81641 0.578125 -6.08984 -1.58984 -8.25781l-53.0312 -53.0312c-2.17188 -2.16797 -5.44141 -2.80078 -8.26172 -1.58984l-42.2891 18.125c-13.4805 -7.36328 -27.7227 -13.2812 -42.4258 -17.625l-17.0664 -42.6602 c-1.13672 -2.84766 -3.89453 -4.71484 -6.96094 -4.71484h-75c-3.06641 0 -5.82422 1.86719 -6.96484 4.71484l-17.0625 42.6602c-14.707 4.34375 -28.9453 10.2617 -42.4258 17.625l-42.293 -18.125c-2.81641 -1.21094 -6.08984 -0.578125 -8.25781 1.58984 l-53.0312 53.0312c-2.16797 2.16797 -2.80078 5.44141 -1.58984 8.25781l18.125 42.293c-7.36719 13.4805 -13.2812 27.7227 -17.625 42.4258l-42.6602 17.0625c-2.84766 1.14062 -4.71484 3.89844 -4.71484 6.96484v75c0 3.06641 1.86719 5.82422 4.71484 6.96484 l42.6602 17.0625c4.34766 14.7031 10.2617 28.9453 17.625 42.4258l-18.125 42.2891c-1.21094 2.82031 -0.578125 6.09375 1.58984 8.26172l53.0312 53.0312c2.16797 2.16797 5.4375 2.79688 8.25781 1.58984l42.293 -18.125 c13.4805 7.36328 27.7227 13.2812 42.4258 17.625l17.0625 42.6602c1.14062 2.84766 3.89844 4.71484 6.96484 4.71484h75c3.06641 0 5.82422 -1.86719 6.96484 -4.71484l17.0625 -42.6602c14.707 -4.34766 28.9453 -10.2617 42.4258 -17.625l42.293 18.125 c2.82031 1.21094 6.08984 0.578125 8.25781 -1.58984l53.0312 -53.0312c2.16797 -2.16797 2.80078 -5.44141 1.58984 -8.25781l-18.125 -42.293c7.36328 -13.4805 13.2773 -27.7188 17.625 -42.4258zM497 159.578v64.8438l-41.3594 16.5469 c-2.17578 0.867188 -3.82031 2.70312 -4.44531 4.96094c-4.42188 15.9922 -10.8359 31.4297 -19.0586 45.8789c-1.16016 2.04297 -1.30078 4.50781 -0.375 6.66406l17.5781 41.0156l-45.8516 45.8516l-41.0156 -17.5781 c-2.15625 -0.925781 -4.62109 -0.785156 -6.66406 0.375c-14.4531 8.22266 -29.8867 14.6367 -45.8789 19.0586c-2.25781 0.625 -4.09375 2.26953 -4.96094 4.44531l-16.5469 41.3594h-64.8438l-16.5469 -41.3594c-0.867188 -2.17578 -2.70312 -3.82031 -4.96094 -4.44531 c-15.9922 -4.42188 -31.4258 -10.8359 -45.8789 -19.0586c-2.03906 -1.16016 -4.50781 -1.30078 -6.66406 -0.375l-41.0156 17.5781l-45.8516 -45.8516l17.5781 -41.0156c0.925781 -2.15625 0.785156 -4.62109 -0.375 -6.66406 c-8.22266 -14.4531 -14.6367 -29.8867 -19.0586 -45.8789c-0.625 -2.25781 -2.26953 -4.09375 -4.44531 -4.96094l-41.3594 -16.5469v-64.8438l41.3594 -16.543c2.17188 -0.871094 3.81641 -2.70703 4.44141 -4.96484c4.42578 -15.9922 10.8359 -31.4258 19.0586 -45.8828 c1.16406 -2.03906 1.30078 -4.50391 0.375 -6.66406l-17.5742 -41.0078l45.8516 -45.8555l41.0117 17.5781c2.16016 0.921875 4.625 0.785156 6.66406 -0.375c14.4531 -8.22266 29.8906 -14.6367 45.8828 -19.0586c2.25781 -0.625 4.09375 -2.26953 4.96094 -4.44531 l16.5469 -41.3594h64.8438l16.543 41.3594c0.871094 2.17578 2.70703 3.82031 4.96484 4.44531c15.9922 4.42188 31.4258 10.8359 45.8828 19.0586c2.03906 1.16016 4.50391 1.29688 6.66406 0.375l41.0078 -17.5781l45.8555 45.8555l-17.5781 41.0078 c-0.925781 2.16016 -0.785156 4.625 0.375 6.66406c8.22266 14.4531 14.6367 29.8906 19.0586 45.8828c0.625 2.25781 2.26953 4.09375 4.44531 4.96484zM497 159.578zM256 357c90.9805 0 165 -74.0195 165 -165s-74.0195 -165 -165 -165s-165 74.0195 -165 165 s74.0195 165 165 165zM256 42c82.7109 0 150 67.2891 150 150s-67.2891 150 -150 150s-150 -67.2891 -150 -150s67.2891 -150 150 -150zM256 42zM256 327c74.4375 0 135 -60.5625 135 -135s-60.5625 -135 -135 -135s-135 60.5625 -135 135 c0 30.6562 10.0195 59.5547 28.9727 83.5703c2.56641 3.25391 7.28516 3.80859 10.5352 1.24219c3.25391 -2.56641 3.80859 -7.28125 1.24219 -10.5352c-16.8477 -21.3398 -25.75 -47.0273 -25.75 -74.2773c0 -66.168 53.832 -120 120 -120s120 53.832 120 120 s-53.832 120 -120 120c-27.25 0 -52.9375 -8.90234 -74.2773 -25.75c-3.25391 -2.56641 -7.96875 -2.01172 -10.5352 1.24219c-2.56641 3.25 -2.01172 7.96875 1.24219 10.5312c24.0156 18.957 52.9141 28.9766 83.5703 28.9766zM256 327zM167.812 136.754 c-2.32031 1.33984 -3.75 3.81641 -3.75 6.49609v97.5c0 2.67969 1.42969 5.15625 3.75 6.49609l84.4375 48.75c2.32031 1.33984 5.17969 1.33984 7.5 0l84.4375 -48.75c2.32031 -1.33984 3.75 -3.81641 3.75 -6.49609v-97.5c0 -2.67969 -1.42969 -5.15625 -3.75 -6.49609 l-84.4375 -48.75c-1.16016 -0.667969 -2.45312 -1.00391 -3.75 -1.00391c-1.29297 0 -2.58984 0.335938 -3.75 1.00391zM179.062 227.762v-80.1836l69.4375 -40.0898v80.1836zM263.5 107.488l69.4375 40.0898v80.1836l-69.4375 -40.0898v-80.1836zM256 280.84 l-69.4375 -40.0898l69.4375 -40.0898l69.4375 40.0898zM256 280.84z" transform="scale(1, -1) translate(0, -448)" fill="rgb(109, 183, 221)" />
</svg>