<?xml version="1.0" encoding="UTF-8" standalone="no"?>
<svg width="512.0" height="512.0" viewBox="0 0 512.0 512.0" xmlns="http://www.w3.org/2000/svg">
    <path d="M511.998 360.196c0 -0.00976562 0.000976562 -0.0185547 0.00195312 -0.0283203v-335.231c0 -13.3096 -10.8281 -24.1367 -24.1367 -24.1367h-138.52c-2.75488 -4.06055 -6.63281 -7.28027 -11.3115 -9.30078c-4.60352 -1.98828 -9.68262 -2.63281 -14.582 -1.92969 c0.458984 -4.19922 -0.0878906 -8.56738 -1.79199 -12.7461c-4.15527 -10.1895 -14.0127 -16.374 -24.3916 -16.374c-3.30273 -0.000976562 -6.65723 0.625977 -9.89941 1.94727l-94.1807 38.4023h-110.473c-13.3096 0 -24.1367 10.8281 -24.1367 24.1367v18.499 c0 4.03809 3.27246 7.31152 7.31055 7.31152s7.31152 -3.27344 7.31152 -7.31152v-18.499c0 -5.24609 4.26855 -9.51465 9.51465 -9.51465h74.6123l-10.1865 4.15332c-14.8926 6.07227 -28.085 15.916 -38.1475 28.4639 c-0.53125 0.663086 -1.07422 1.31738 -1.62598 1.96289c-1.10547 1.29004 -2.24902 2.54395 -3.43262 3.75879c-1.18262 1.21484 -2.40234 2.3916 -3.65918 3.5293c-6.90527 6.25195 -14.8848 11.29 -23.5449 14.8203 c-0.00585938 0.00195312 -0.0107422 0.00488281 -0.015625 0.0078125l-9.05371 3.69043l-0.361328 -0.884766c-2.29883 -5.63672 -7.75293 -9.05957 -13.4961 -9.05957c-1.82715 0 -3.68164 0.34668 -5.47461 1.07715l-39.2695 16.0127 c-7.43066 3.03027 -11.0117 11.541 -7.98145 18.9717l48.0166 117.763c1.46777 3.59863 4.24902 6.41211 7.83301 7.91895c3.58301 1.50684 7.54004 1.53027 11.1387 0.0605469l39.2686 -16.0107c2.7002 -1.10059 4.95703 -2.94043 6.55273 -5.30371 c0.532227 -0.788086 0.991211 -1.63379 1.36816 -2.53027c1.50684 -3.58301 1.5293 -7.53906 0.0605469 -11.1387l-1.49219 -3.66113l1.19727 -0.488281c0.15625 -0.046875 0.358398 -0.0957031 0.617188 -0.142578 c0.0273438 -0.00390625 0.0566406 -0.00878906 0.0849609 -0.0136719c0.0390625 -0.00683594 0.078125 -0.0136719 0.120117 -0.0205078c0.0576172 -0.00878906 0.120117 -0.0175781 0.182617 -0.0273438 c0.0166016 -0.00292969 0.0302734 -0.00488281 0.0458984 -0.00683594c4.15234 -0.561523 19.1133 -0.385742 72.3701 9.4248c0.913086 0.167969 1.84082 0.34082 2.77734 0.514648c2.32617 0.431641 4.71875 0.880859 7.18848 1.34961 c0.399414 0.0761719 0.802734 0.152344 1.2041 0.229492c1.39941 0.265625 2.8252 0.540039 4.27148 0.817383c1.80664 0.348633 3.63965 0.702148 5.52051 1.06934c42.4072 8.26855 83.0107 17.3994 83.416 17.4902 c0.0351562 0.00878906 0.0693359 0.0146484 0.104492 0.0224609c7.30957 1.53516 14.6807 -0.416016 20.1953 -4.73633c3.70605 -2.90332 6.5752 -6.875 8.02246 -11.585c3.87793 -12.6172 -3.21875 -26.0576 -15.8203 -29.958l-52.9658 -16.3945l113.787 -46.3965 c0.8125 -0.331055 1.60352 -0.700195 2.37109 -1.10449c5.36719 -2.82812 9.55859 -7.38574 11.9424 -13.0527c2.72559 -6.47656 2.76465 -13.627 0.111328 -20.1338c-1.58789 -3.89453 -4.02734 -7.27832 -7.11719 -9.95215 c0.0458984 -0.0263672 0.0869141 -0.0556641 0.131836 -0.0820312c0.543945 -0.3125 1.07422 -0.641602 1.59082 -0.990234c0.0957031 -0.0634766 0.1875 -0.129883 0.280273 -0.194336c0.517578 -0.358398 1.02441 -0.730469 1.51172 -1.12305 c0.0175781 -0.0136719 0.0341797 -0.0263672 0.0517578 -0.0390625c0.496094 -0.401367 0.97168 -0.826172 1.43652 -1.26367c0.0878906 -0.0820312 0.175781 -0.163086 0.262695 -0.24707c0.444336 -0.428711 0.873047 -0.873047 1.28613 -1.33398 c0.0771484 -0.0869141 0.152344 -0.174805 0.228516 -0.261719c0.416992 -0.476562 0.820312 -0.964844 1.20312 -1.47168c0.00683594 -0.00878906 0.0146484 -0.0185547 0.0214844 -0.0283203c0.384766 -0.512695 0.746094 -1.0459 1.09375 -1.58887 c0.0654297 -0.101562 0.131836 -0.202148 0.195312 -0.304688c0.329102 -0.529297 0.640625 -1.07227 0.93457 -1.62793c0.0546875 -0.106445 0.107422 -0.213867 0.162109 -0.321289c0.298828 -0.583008 0.581055 -1.1748 0.838867 -1.78516 c2.72461 -6.47559 2.76367 -13.626 0.110352 -20.1328c-5.04395 -12.3701 -18.4932 -18.8389 -31.0801 -15.502c0.0566406 -0.650391 0.0800781 -1.30469 0.0878906 -1.96094c0.000976562 -0.0830078 0.0117188 -0.166016 0.0117188 -0.249023h134.053 c5.24609 0 9.51465 4.26855 9.51465 9.51465v327.923h-154.971v-111.128c0 -4.3457 -2.55957 -8.30469 -6.52148 -10.0889c-3.96387 -1.7832 -8.625 -1.07422 -11.876 1.80859l-38.7217 34.3027l-38.7207 -34.3037c-2.05957 -1.82617 -4.68652 -2.78027 -7.34277 -2.78027 c-1.53516 0 -3.08008 0.319336 -4.53125 0.972656c-3.96289 1.7832 -6.52246 5.74316 -6.52246 10.0889v111.128h-154.972v-100.098c0 -4.03809 -3.27344 -7.31152 -7.31152 -7.31152s-7.31055 3.27344 -7.31055 7.31152v107.409 c0 0.00878906 0.000976562 0.0185547 0.000976562 0.0273438c0.000976562 0.0566406 0.0078125 0.113281 0.00878906 0.168945c0.00585938 0.222656 0.0195312 0.443359 0.0449219 0.661133c0.00976562 0.0800781 0.0253906 0.160156 0.0371094 0.240234 c0.0302734 0.199219 0.0673828 0.397461 0.113281 0.592773c0.0175781 0.0771484 0.0380859 0.152344 0.0585938 0.229492c0.0576172 0.211914 0.124023 0.418945 0.200195 0.62207c0.0146484 0.0380859 0.0224609 0.078125 0.0380859 0.117188l20.3447 52.0801 c2.05078 5.25 7.0166 8.6416 12.6533 8.6416h156.378h73.667h65.7295c4.03809 0 7.31055 -3.27246 7.31055 -7.31055s-3.27246 -7.31152 -7.31055 -7.31152h-56.5332l9.59082 -41.4482h153.074l-16.1914 41.4482h-36.3359c-4.03809 0 -7.31055 3.27344 -7.31055 7.31152 s3.27246 7.31055 7.31055 7.31055h37.0439c5.63477 0 10.6016 -3.3916 12.6533 -8.63965l20.3447 -52.082c0.0146484 -0.0380859 0.0244141 -0.078125 0.0380859 -0.117188c0.0761719 -0.204102 0.141602 -0.411133 0.200195 -0.62207 c0.0205078 -0.0771484 0.0410156 -0.152344 0.0585938 -0.229492c0.0458984 -0.194336 0.0830078 -0.392578 0.113281 -0.592773c0.0117188 -0.0800781 0.0263672 -0.160156 0.0371094 -0.240234c0.0253906 -0.217773 0.0390625 -0.438477 0.0449219 -0.661133 c0.00195312 -0.0566406 0.00878906 -0.113281 0.00878906 -0.168945zM254.267 408.928l-9.59082 -41.4482h81.2236l-9.59082 41.4482h-62.042zM229.668 367.479l9.59082 41.4482h-146.475l-16.1914 -41.4482h153.075zM327.786 249.639v103.219h-84.9932v-103.219 l35.1602 31.1494c2.0918 1.85254 4.71387 2.77832 7.33594 2.77832c2.62109 0 5.24316 -0.925781 7.33398 -2.77832l35.1621 -31.1494h0.000976562zM53.7852 80.5068l47.9658 117.634l-39.1436 15.9609l-47.9658 -117.635zM345.869 36.3857l10.1553 -4.13965 c0.691406 -0.282227 1.39453 -0.485352 2.10156 -0.62793c3.48535 -0.704102 7.05273 0.233398 9.7207 2.41602c0.0664062 0.0537109 0.126953 0.117188 0.192383 0.173828c0.414062 0.353516 0.802734 0.740234 1.16699 1.15332 c0.585938 0.666992 1.11133 1.39941 1.54199 2.20996c0.185547 0.347656 0.354492 0.708984 0.505859 1.08105c0.147461 0.361328 0.276367 0.727539 0.386719 1.09668c0.769531 2.58301 0.624023 5.3291 -0.435547 7.8457 c-0.907227 2.1582 -2.40332 3.95312 -4.31445 5.21289c-0.637695 0.419922 -1.32031 0.78125 -2.04297 1.0752l-105.955 43.2031c-3.74023 1.52441 -5.53516 5.79199 -4.00977 9.53027c1.52441 3.74023 5.79102 5.53516 9.5293 4.01074l87.3965 -35.6357 c0.160156 -0.0654297 0.325195 -0.113281 0.486328 -0.171875c0.204102 -0.0722656 0.407227 -0.15332 0.614258 -0.214844c0.200195 -0.0585938 0.40332 -0.0996094 0.605469 -0.147461c0.168945 -0.0400391 0.336914 -0.0898438 0.506836 -0.123047 c0.268555 -0.0527344 0.540039 -0.0830078 0.810547 -0.116211c0.105469 -0.0117188 0.208984 -0.0341797 0.314453 -0.0439453c0.354492 -0.0332031 0.709961 -0.046875 1.06543 -0.046875c0.0224609 0 0.0439453 -0.00292969 0.0664062 -0.00292969 c1.51465 0.00878906 3.02832 0.314453 4.46582 0.918945c2.87695 1.20996 5.10938 3.46777 6.28809 6.35742s1.16113 6.06543 -0.0488281 8.94238s-3.46777 5.11035 -6.3584 6.28809l-132.703 54.1104c-2.86035 1.16602 -4.67871 4.00293 -4.54395 7.08789 c0.132812 3.08691 2.19043 5.75391 5.1416 6.66699l72.4814 22.4346c3.37988 1.04492 5.74316 3.85156 6.39844 7.10449c0.297852 1.47852 0.243164 3.0498 -0.230469 4.58887c-1.34668 4.38281 -5.94727 7.09863 -10.6436 6.40332 c-0.182617 -0.0273438 -0.366211 -0.0488281 -0.548828 -0.0869141c-1.83301 -0.412109 -42.623 -9.56055 -84.8838 -17.7812c-1.49805 -0.291016 -2.96875 -0.574219 -4.4209 -0.854492c-0.492188 -0.09375 -0.975586 -0.186523 -1.46289 -0.280273 c-0.948242 -0.181641 -1.89355 -0.363281 -2.82227 -0.540039c-0.616211 -0.117188 -1.22559 -0.231445 -1.83496 -0.347656c-0.761719 -0.145508 -1.52051 -0.288086 -2.26953 -0.429688c-0.706055 -0.132812 -1.40625 -0.263672 -2.10449 -0.394531 c-0.613281 -0.115234 -1.2207 -0.228516 -1.82617 -0.34082c-0.77832 -0.144531 -1.55273 -0.288086 -2.32031 -0.429688c-0.407227 -0.0751953 -0.808594 -0.149414 -1.21289 -0.223633c-16.4023 -3.01758 -30.4541 -5.35742 -41.9082 -6.97559 c-16.8408 -2.37891 -26.2402 -2.97266 -31.9229 -2.71484c-4.54785 0.171875 -6.2373 0.857422 -7.42285 1.34082l-1.25879 0.512695l-17.0635 -41.8486l-18.0576 -44.2852l9.06641 -3.69629c0.000976562 0 0.00195312 -0.000976562 0.00292969 -0.000976562 c10.2393 -4.17578 19.6738 -10.1328 27.8408 -17.5254c3.71191 -3.36133 7.16211 -7.01855 10.3066 -10.9395c3.19238 -3.97949 6.75586 -7.63672 10.627 -10.9258c6.45312 -5.48145 13.7637 -9.93555 21.6357 -13.1455l44.7197 -18.2354l0.0117188 -0.00585938 l95.4951 -38.9385c5.96777 -2.43457 12.7969 0.441406 15.2295 6.4082c2.43262 5.96484 -0.442383 12.7969 -6.40723 15.2305c-0.0712891 0.0273438 -0.135742 0.0644531 -0.204102 0.0947266c-0.0771484 0.0283203 -0.154297 0.0498047 -0.230469 0.0810547 l-71.0762 28.9805c-3.73828 1.52539 -5.5332 5.79199 -4.00879 9.53125c1.52441 3.74023 5.78906 5.53418 9.53027 4.00977l71.0762 -28.9805c0.0732422 -0.0302734 0.142578 -0.0683594 0.21582 -0.101562c0.0712891 -0.0263672 0.144531 -0.046875 0.216797 -0.0751953 l15.4834 -6.31348c3.01953 -1.23242 6.48828 -1.18555 9.51855 0.121094c2.75293 1.18848 4.86133 3.28418 6.00293 5.9209c0.0117188 0.0302734 0.0185547 0.0625 0.0322266 0.0927734c0.0566406 0.135742 0.118164 0.269531 0.179688 0.402344 c0.0732422 0.193359 0.129883 0.388672 0.192383 0.584961c0.0546875 0.171875 0.117188 0.34375 0.163086 0.516602c0.0527344 0.196289 0.0878906 0.393555 0.129883 0.59082c0.0371094 0.177734 0.0820312 0.354492 0.110352 0.532227 c0.0322266 0.194336 0.0488281 0.389648 0.0693359 0.583984c0.0205078 0.181641 0.046875 0.362305 0.0576172 0.542969c0.0126953 0.191406 0.00976562 0.381836 0.0117188 0.571289c0.00195312 0.183594 0.0107422 0.369141 0.00488281 0.551758 c-0.00585938 0.186523 -0.0283203 0.371094 -0.0429688 0.557617c-0.015625 0.18457 -0.0244141 0.371094 -0.0478516 0.554688c-0.0244141 0.183594 -0.0625 0.364258 -0.0957031 0.545898c-0.0322266 0.181641 -0.0585938 0.366211 -0.0996094 0.546875 c-0.0410156 0.179688 -0.0957031 0.353516 -0.144531 0.530273c-0.0498047 0.178711 -0.09375 0.360352 -0.151367 0.537109c-0.0585938 0.175781 -0.129883 0.345703 -0.196289 0.518555c-0.0644531 0.170898 -0.124023 0.345703 -0.197266 0.513672 c-0.0751953 0.174805 -0.166992 0.342773 -0.250977 0.513672c-0.078125 0.15918 -0.150391 0.322266 -0.236328 0.477539c-0.0957031 0.173828 -0.205078 0.338867 -0.30957 0.506836c-0.0898438 0.144531 -0.172852 0.294922 -0.269531 0.436523 c-0.115234 0.169922 -0.245117 0.331055 -0.370117 0.495117c-0.0996094 0.130859 -0.192383 0.265625 -0.296875 0.392578c-0.137695 0.166016 -0.289062 0.321289 -0.436523 0.479492c-0.105469 0.114258 -0.205078 0.234375 -0.31543 0.344727 c-0.160156 0.160156 -0.333984 0.305664 -0.503906 0.457031c-0.111328 0.0976562 -0.214844 0.203125 -0.330078 0.296875c-0.19043 0.15625 -0.395508 0.297852 -0.59668 0.442383c-0.105469 0.0761719 -0.205078 0.160156 -0.314453 0.232422 c-0.227539 0.151367 -0.467773 0.287109 -0.708008 0.423828c-0.09375 0.0527344 -0.182617 0.114258 -0.279297 0.166016c-0.34082 0.180664 -0.693359 0.345703 -1.05859 0.494141l-87.3877 35.6328c-3.74023 1.52441 -5.53516 5.79199 -4.01074 9.53027 c1.52539 3.74023 5.79199 5.53418 9.53027 4.00977l87.3857 -35.6309c0.000976562 0 0.00195312 -0.000976562 0.00292969 -0.000976562c0.00292969 -0.000976562 0.00585938 -0.00292969 0.00976562 -0.00390625 c0.00390625 -0.00195312 0.0078125 -0.00292969 0.0117188 -0.00488281z" transform="scale(1, -1) translate(0, -448)" fill="rgb(207, 117, 0)" />
</svg>